<svg id="Capa_1" data-name="Capa 1" xmlns="http://www.w3.org/2000/svg" viewBox="0 0 286.13 286.33"><defs><style>.cls-1{fill:#fff;}</style></defs><title>iglogo</title><path class="cls-1" d="M342,582c-17.05-.17-34.1-.26-51.15-.55-9.3-.16-18.62-.45-27.79-2.36-21.41-4.47-38.79-15.07-50.67-33.78-5.45-8.58-8.71-18.06-10.75-28a127.67,127.67,0,0,1-2.39-25q-.24-34.81-.32-69.63c0-13,0-26,.26-39a117.51,117.51,0,0,1,4.86-32.79c5-16.48,14.42-29.85,28.68-39.71,11.86-8.2,25.12-12.29,39.3-13.83a315.2,315.2,0,0,1,33.79-1.6c16,0,31.94-.14,47.9-.07,14.78.07,29.57.17,44.34.54,12.77.33,25.34,2.1,37.36,6.71,17.45,6.69,30.39,18.46,39.1,34.95,5.74,10.87,8.47,22.51,9.2,34.72,1.19,20.13,1.48,40.28,1.28,60.44-.2,21.27-.18,42.54-.55,63.81-.24,13.35-2.55,26.37-8,38.69-7.08,16.07-18.27,28.26-34.08,36.08a92.18,92.18,0,0,1-35.66,9.28c-9.29.57-18.61.64-27.92.72-12.27.12-24.54,0-36.81,0Zm-9-25.44c22.65-.21,39.85-.34,57-.54,10-.12,20-.7,29.77-3.12,10.36-2.57,19.32-7.53,26.21-15.87,5.89-7.13,9.16-15.46,11.05-24.39,1.7-8,2-16.13,2.1-24.26.2-17,.27-34,.37-51,0-7.29.14-14.58,0-21.87-.21-12.56-.42-25.12-.94-37.67-.35-8.49-1.68-16.91-5.13-24.77-7.43-17-20.68-26.55-38.77-29.47-10.91-1.76-22-2.11-33-2.23-18.67-.2-37.35-.17-56-.17-10.2,0-20.4,0-30.6.21s-20.39.78-30.38,3.13c-12.67,3-22.85,9.69-30.15,20.54-5.57,8.28-7.76,17.64-8.74,27.44a355.08,355.08,0,0,0-1.42,36.75q.15,40.72.32,81.45a109.34,109.34,0,0,0,2.55,23.91,52.52,52.52,0,0,0,10.7,22.46c7.82,9.34,18.14,14.27,29.82,16.75a110.91,110.91,0,0,0,21.75,2C305.81,556.05,322.12,556.38,333,556.56Z" transform="translate(-198.93 -295.67)"/><path class="cls-1" d="M341.86,512.35a73.5,73.5,0,1,1,73.55-73.68A73.43,73.43,0,0,1,341.86,512.35Zm-47.92-74.07c-.28,26.24,20.94,48,46.85,48.54a48.07,48.07,0,0,0,49-47.2c.49-26.87-20.93-48.45-47.94-48.73C316,390.62,294.21,412.19,293.94,438.28Z" transform="translate(-198.93 -295.67)"/><path class="cls-1" d="M401.16,362.53a17.13,17.13,0,0,1,34.26-.1,17.13,17.13,0,1,1-34.26.1Z" transform="translate(-198.93 -295.67)"/></svg>