<svg id="Capa_1" data-name="Capa 1" xmlns="http://www.w3.org/2000/svg" viewBox="0 0 342.3 241.35"><defs><style>.cls-1{fill:#fff;}</style></defs><title>youtubelogo</title><path class="cls-1" d="M1075.13,323.61c37.62,1.72,78.33,2.89,118.94,5.65,28.06,1.91,44,15.63,46.94,43.39,5.4,50.21,8.34,100.74-1.4,150.9-4.29,22.07-17.62,34-42.12,36.67-22.23,2.46-44.64,4.22-67,4.49q-64.12.76-128.27-.72a440.89,440.89,0,0,1-57.68-5.32c-18.83-2.93-31.89-14.48-34.64-33.79-3.2-22.5-5.77-45.27-6.14-68-.42-26,1.16-52.11,3.25-78.07,1.56-19.39,8.23-37.08,28.4-44.86A85,85,0,0,1,961,328.65C997.94,326.63,1035,325.31,1075.13,323.61Zm-35.58,121.53c0,14.24-.07,28.49,0,42.74,0,6.66,2.08,7.9,7.66,4.65q37.17-21.63,74.24-43.4c5-2.95,5-5.14-.12-8.15q-36.81-21.62-73.71-43.1c-6.12-3.56-8-2.48-8.07,4.51C1039.48,416.64,1039.55,430.89,1039.55,445.14Z" transform="translate(-903.7 -323.61)"/></svg>